<svg viewBox="0 0 200 200" width="200" height="200" fill="none">
            <!-- 二维码背景 -->
            <rect x="0" y="0" width="200" height="200" fill="white" />

            <!-- 二维码图案 -->
            <g class="qrcode-pattern">
              <!-- 左上角定位图案 -->
              <rect x="20" y="20" width="40" height="40" fill="#1890ff" />
              <rect x="24" y="24" width="32" height="32" fill="white" />
              <rect x="28" y="28" width="24" height="24" fill="#1890ff" />
              <rect x="32" y="32" width="16" height="16" fill="white" />
              <rect x="36" y="36" width="8" height="8" fill="#1890ff" />

              <!-- 右上角定位图案 -->
              <rect x="140" y="20" width="40" height="40" fill="#1890ff" />
              <rect x="144" y="24" width="32" height="32" fill="white" />
              <rect x="148" y="28" width="24" height="24" fill="#1890ff" />
              <rect x="152" y="32" width="16" height="16" fill="white" />
              <rect x="156" y="36" width="8" height="8" fill="#1890ff" />

              <!-- 左下角定位图案 -->
              <rect x="20" y="140" width="40" height="40" fill="#1890ff" />
              <rect x="24" y="144" width="32" height="32" fill="white" />
              <rect x="28" y="148" width="24" height="24" fill="#1890ff" />
              <rect x="32" y="152" width="16" height="16" fill="white" />
              <rect x="36" y="156" width="8" height="8" fill="#1890ff" />

              <!-- 二维码数据区域 -->
              <rect x="70" y="20" width="8" height="8" fill="#1890ff" />
              <rect x="82" y="20" width="8" height="8" fill="#1890ff" />
              <rect x="94" y="20" width="8" height="8" fill="#1890ff" />
              <rect x="106" y="20" width="8" height="8" fill="#1890ff" />
              <rect x="118" y="20" width="8" height="8" fill="#1890ff" />

              <rect x="70" y="32" width="8" height="8" fill="#1890ff" />
              <rect x="86" y="32" width="8" height="8" fill="#1890ff" />
              <rect x="102" y="32" width="8" height="8" fill="#1890ff" />
              <rect x="118" y="32" width="8" height="8" fill="#1890ff" />

              <rect x="70" y="44" width="8" height="8" fill="#1890ff" />
              <rect x="78" y="44" width="8" height="8" fill="#1890ff" />
              <rect x="86" y="44" width="8" height="8" fill="#1890ff" />
              <rect x="94" y="44" width="8" height="8" fill="#1890ff" />
              <rect x="102" y="44" width="8" height="8" fill="#1890ff" />
              <rect x="110" y="44" width="8" height="8" fill="#1890ff" />
              <rect x="118" y="44" width="8" height="8" fill="#1890ff" />

              <rect x="70" y="56" width="8" height="8" fill="#1890ff" />
              <rect x="82" y="56" width="8" height="8" fill="#1890ff" />
              <rect x="94" y="56" width="8" height="8" fill="#1890ff" />
              <rect x="106" y="56" width="8" height="8" fill="#1890ff" />
              <rect x="118" y="56" width="8" height="8" fill="#1890ff" />

              <rect x="70" y="68" width="8" height="8" fill="#1890ff" />
              <rect x="78" y="68" width="8" height="8" fill="#1890ff" />
              <rect x="86" y="68" width="8" height="8" fill="#1890ff" />
              <rect x="94" y="68" width="8" height="8" fill="#1890ff" />
              <rect x="102" y="68" width="8" height="8" fill="#1890ff" />
              <rect x="110" y="68" width="8" height="8" fill="#1890ff" />
              <rect x="118" y="68" width="8" height="8" fill="#1890ff" />

              <!-- 中间区域 -->
              <rect x="70" y="80" width="8" height="8" fill="#1890ff" />
              <rect x="82" y="80" width="8" height="8" fill="#1890ff" />
              <rect x="94" y="80" width="8" height="8" fill="#1890ff" />
              <rect x="106" y="80" width="8" height="8" fill="#1890ff" />
              <rect x="118" y="80" width="8" height="8" fill="#1890ff" />

              <rect x="70" y="92" width="8" height="8" fill="#1890ff" />
              <rect x="78" y="92" width="8" height="8" fill="#1890ff" />
              <rect x="86" y="92" width="8" height="8" fill="#1890ff" />
              <rect x="94" y="92" width="8" height="8" fill="#1890ff" />
              <rect x="102" y="92" width="8" height="8" fill="#1890ff" />
              <rect x="110" y="92" width="8" height="8" fill="#1890ff" />
              <rect x="118" y="92" width="8" height="8" fill="#1890ff" />

              <rect x="70" y="104" width="8" height="8" fill="#1890ff" />
              <rect x="82" y="104" width="8" height="8" fill="#1890ff" />
              <rect x="94" y="104" width="8" height="8" fill="#1890ff" />
              <rect x="106" y="104" width="8" height="8" fill="#1890ff" />
              <rect x="118" y="104" width="8" height="8" fill="#1890ff" />

              <rect x="70" y="116" width="8" height="8" fill="#1890ff" />
              <rect x="78" y="116" width="8" height="8" fill="#1890ff" />
              <rect x="86" y="116" width="8" height="8" fill="#1890ff" />
              <rect x="94" y="116" width="8" height="8" fill="#1890ff" />
              <rect x="102" y="116" width="8" height="8" fill="#1890ff" />
              <rect x="110" y="116" width="8" height="8" fill="#1890ff" />
              <rect x="118" y="116" width="8" height="8" fill="#1890ff" />

              <!-- 底部区域 -->
              <rect x="70" y="128" width="8" height="8" fill="#1890ff" />
              <rect x="82" y="128" width="8" height="8" fill="#1890ff" />
              <rect x="94" y="128" width="8" height="8" fill="#1890ff" />
              <rect x="106" y="128" width="8" height="8" fill="#1890ff" />
              <rect x="118" y="128" width="8" height="8" fill="#1890ff" />

              <rect x="70" y="140" width="8" height="8" fill="#1890ff" />
              <rect x="78" y="140" width="8" height="8" fill="#1890ff" />
              <rect x="86" y="140" width="8" height="8" fill="#1890ff" />
              <rect x="94" y="140" width="8" height="8" fill="#1890ff" />
              <rect x="102" y="140" width="8" height="8" fill="#1890ff" />
              <rect x="110" y="140" width="8" height="8" fill="#1890ff" />
              <rect x="118" y="140" width="8" height="8" fill="#1890ff" />

              <!-- 右侧区域 -->
              <rect x="140" y="70" width="8" height="8" fill="#1890ff" />
              <rect x="152" y="70" width="8" height="8" fill="#1890ff" />
              <rect x="164" y="70" width="8" height="8" fill="#1890ff" />
              <rect x="176" y="70" width="8" height="8" fill="#1890ff" />

              <rect x="140" y="82" width="8" height="8" fill="#1890ff" />
              <rect x="148" y="82" width="8" height="8" fill="#1890ff" />
              <rect x="156" y="82" width="8" height="8" fill="#1890ff" />
              <rect x="164" y="82" width="8" height="8" fill="#1890ff" />
              <rect x="172" y="82" width="8" height="8" fill="#1890ff" />
              <rect x="180" y="82" width="8" height="8" fill="#1890ff" />

              <rect x="140" y="94" width="8" height="8" fill="#1890ff" />
              <rect x="152" y="94" width="8" height="8" fill="#1890ff" />
              <rect x="164" y="94" width="8" height="8" fill="#1890ff" />
              <rect x="176" y="94" width="8" height="8" fill="#1890ff" />

              <rect x="140" y="106" width="8" height="8" fill="#1890ff" />
              <rect x="148" y="106" width="8" height="8" fill="#1890ff" />
              <rect x="156" y="106" width="8" height="8" fill="#1890ff" />
              <rect x="164" y="106" width="8" height="8" fill="#1890ff" />
              <rect x="172" y="106" width="8" height="8" fill="#1890ff" />
              <rect x="180" y="106" width="8" height="8" fill="#1890ff" />

              <rect x="140" y="118" width="8" height="8" fill="#1890ff" />
              <rect x="152" y="118" width="8" height="8" fill="#1890ff" />
              <rect x="164" y="118" width="8" height="8" fill="#1890ff" />
              <rect x="176" y="118" width="8" height="8" fill="#1890ff" />
            </g>
          </svg>